<svg xmlns="http://www.w3.org/2000/svg" id="Layer_1" data-name="Layer 1" viewBox="0 0 600.18 218.46"><defs><style>.cls-1{fill:#2b3b84;}.cls-2,.cls-3{fill:#ea2126;}.cls-3,.cls-4{fill-rule:evenodd;}.cls-4{fill:#fff;}</style></defs><path class="cls-1" d="M81.74,76.28V96.47H80.06q-1.89-7.91-7-12.12a18,18,0,0,0-11.69-4.21,17.31,17.31,0,0,0-10,3.14,18.38,18.38,0,0,0-6.66,8.21A37.23,37.23,0,0,0,42,105.93a48.53,48.53,0,0,0,2,14.24,19,19,0,0,0,6.19,9.72q4.22,3.29,10.92,3.28a21.35,21.35,0,0,0,10.07-2.4,34.76,34.76,0,0,0,9.65-8.3v5a31.77,31.77,0,0,1-10.2,7.41,30.87,30.87,0,0,1-12.4,2.3,35.52,35.52,0,0,1-16.57-3.74,26.37,26.37,0,0,1-11.17-10.74,30,30,0,0,1-3.93-14.91A31.8,31.8,0,0,1,42.61,80.4a31.91,31.91,0,0,1,15.75-4.12,35.63,35.63,0,0,1,13,2.66,20.09,20.09,0,0,0,5,1.55,3.25,3.25,0,0,0,2.38-1,5.46,5.46,0,0,0,1.31-3.2Z" transform="translate(-26.48 -30.77)"></path><path class="cls-1" d="M100.36,95.7v31.84q0,4.26,1,5.44t3.87,1.35v1.55H83.52v-1.55a5.23,5.23,0,0,0,4-1.54q.86-1,.86-5.25V104.08q0-4.26-1-5.44c-.66-.78-1.93-1.24-3.82-1.35V95.7Zm-6-19.47a6.35,6.35,0,0,1,4.72,2,6.44,6.44,0,0,1,1.94,4.7,6.33,6.33,0,0,1-2,4.69,6.64,6.64,0,0,1-9.39-9.39A6.33,6.33,0,0,1,94.35,76.23Z" transform="translate(-26.48 -30.77)"></path><path class="cls-1" d="M120.23,81V95.7h9.54V100h-9.54v24.8a18.46,18.46,0,0,0,.33,4.49,3.21,3.21,0,0,0,1.13,1.63,2.56,2.56,0,0,0,1.51.63q2.79,0,5.28-4.26l1.29,1q-3.48,8.25-11.3,8.25a10,10,0,0,1-6.47-2.13,9.42,9.42,0,0,1-3.37-4.75c-.29-1-.43-3.61-.43-7.9V100H103v-1.5a55.56,55.56,0,0,0,9.22-8A48.75,48.75,0,0,0,118.81,81Z" transform="translate(-26.48 -30.77)"></path><path class="cls-1" d="M147.19,137.51l-13-29.78q-2.92-6.74-4.32-8.29a7.36,7.36,0,0,0-3.38-2.15V95.7h21.36v1.59a4.93,4.93,0,0,0-3,.82,2.2,2.2,0,0,0-.86,1.76q0,1.63,2.14,6.44L153.08,122l4.69-12.16c1.68-4.32,2.53-7.33,2.53-9a3.25,3.25,0,0,0-1.05-2.54,5.92,5.92,0,0,0-3.72-1V95.7H169v1.59a5,5,0,0,0-3.22,1.53q-1.24,1.31-4.17,8.91l-11.47,29.78q-4.35,11.18-6.45,13.75a9.24,9.24,0,0,1-7.44,3.61,8.17,8.17,0,0,1-5.77-2,6.44,6.44,0,0,1-2.22-4.92,5.79,5.79,0,0,1,1.53-4.12,4.93,4.93,0,0,1,3.76-1.64,4.56,4.56,0,0,1,3.46,1.38,6.14,6.14,0,0,1,1.35,4.25,4.34,4.34,0,0,0,.39,2.11,1.16,1.16,0,0,0,1,.47,3.2,3.2,0,0,0,2.19-1.24q1.71-1.81,4-8.25Z" transform="translate(-26.48 -30.77)"></path><path class="cls-1" d="M273.76,119.29H253.17L250.72,125a12.64,12.64,0,0,0-1.2,4.68,3.89,3.89,0,0,0,2,3.61c.77.46,2.68.8,5.71,1v1.59H237.83v-1.59a8.65,8.65,0,0,0,5.16-2.6c1.34-1.42,3-4.35,5-8.79l20.85-46.49h.81l21,47.78q3,6.8,4.94,8.55a6.71,6.71,0,0,0,4.12,1.55v1.59H271.52v-1.59h1.16c2.27,0,3.86-.31,4.77-.94a2.31,2.31,0,0,0,.95-2,5.29,5.29,0,0,0-.26-1.59c-.06-.26-.49-1.33-1.29-3.22Zm-1.46-3.18L263.62,96l-8.94,20.07Z" transform="translate(-26.48 -30.77)"></path><path class="cls-1" d="M315.5,95.7V101a23.15,23.15,0,0,1,6.12-5,13.38,13.38,0,0,1,6.17-1.44,11.2,11.2,0,0,1,6.49,1.8,11.39,11.39,0,0,1,4,5.5,25.29,25.29,0,0,1,6.6-5.58,13.54,13.54,0,0,1,6.59-1.72,10.54,10.54,0,0,1,6.64,1.91,9.85,9.85,0,0,1,3.44,4.86,33,33,0,0,1,1,9.39v16.45q0,4.65.84,5.76c.55.75,1.72,1.23,3.5,1.46v1.55H346.14v-1.55a4.59,4.59,0,0,0,3.61-1.89c.52-.77.77-2.55.77-5.33V109.84a31.76,31.76,0,0,0-.43-6.83,4,4,0,0,0-1.35-2.17,3.43,3.43,0,0,0-2.17-.71,6.43,6.43,0,0,0-3.74,1.35,17.38,17.38,0,0,0-3.82,4.06v21.57q0,4.35.73,5.46c.66,1.06,1.92,1.65,3.78,1.76v1.55h-20.8v-1.55a4.53,4.53,0,0,0,2.64-.83,3.56,3.56,0,0,0,1.29-1.81,19.39,19.39,0,0,0,.33-4.58V109.84a31.67,31.67,0,0,0-.43-6.83,4.16,4.16,0,0,0-1.45-2.15,3.46,3.46,0,0,0-2.16-.78,5.65,5.65,0,0,0-3.14.91,17.48,17.48,0,0,0-4.3,4.55v21.57q0,4.26.84,5.61c.56.9,1.72,1.44,3.5,1.61v1.55H299.13v-1.55a5,5,0,0,0,3.61-1.63c.48-.63.73-2.49.73-5.59V104.42q0-4.55-.84-5.67c-.56-.74-1.73-1.23-3.5-1.46V95.7Z" transform="translate(-26.48 -30.77)"></path><path class="cls-1" d="M382.86,77.61V99.74q5.07-5.23,11.08-5.24a13.86,13.86,0,0,1,7.78,2.42,16.2,16.2,0,0,1,5.72,6.9,24.47,24.47,0,0,1,2.06,10.32,26.82,26.82,0,0,1-2.62,11.94,19.7,19.7,0,0,1-7,8.19,18.09,18.09,0,0,1-10,2.81,15.23,15.23,0,0,1-5.8-1,16.14,16.14,0,0,1-5-3.35L372.41,137H371V86a17.37,17.37,0,0,0-.3-4.3,3.42,3.42,0,0,0-1.35-1.79,6.84,6.84,0,0,0-3.12-.66V77.61Zm0,26v17.88a56.24,56.24,0,0,0,.25,7,7.22,7.22,0,0,0,2.07,4.11,6.29,6.29,0,0,0,7.92.32c1-.83,1.92-2.48,2.63-4.94s1-6.91,1-13.32q0-9.24-2.32-12.68A5.19,5.19,0,0,0,390,99.4Q386.25,99.4,382.86,103.56Z" transform="translate(-26.48 -30.77)"></path><path class="cls-1" d="M450.21,95.7v31.46c0,3.06.29,5,.86,5.73s1.73,1.24,3.48,1.44v1.55H438.18v-5.37a20.81,20.81,0,0,1-5.76,5,13.32,13.32,0,0,1-6.45,1.56,9.46,9.46,0,0,1-6-2.08,10.1,10.1,0,0,1-3.55-4.88q-.9-2.79-.9-9.75v-16q0-4.55-.84-5.67c-.56-.74-1.73-1.23-3.5-1.46V95.7h16.37v27.46a22.78,22.78,0,0,0,.41,5.54,3.61,3.61,0,0,0,1.29,1.89,3.38,3.38,0,0,0,2,.65,4.94,4.94,0,0,0,2.79-.82,17.72,17.72,0,0,0,4.13-4.51V104.42q0-4.55-.84-5.67c-.56-.74-1.73-1.23-3.5-1.46V95.7Z" transform="translate(-26.48 -30.77)"></path><path class="cls-1" d="M471.24,77.61v49.93q0,4.26,1,5.44t3.87,1.35v1.55H454.4v-1.55a5.23,5.23,0,0,0,4-1.54q.86-1,.86-5.25V86q0-4.22-1-5.4c-.66-.79-1.93-1.24-3.82-1.35V77.61Z" transform="translate(-26.48 -30.77)"></path><path class="cls-1" d="M497.3,130q-7.35,6.5-13.2,6.49a7.76,7.76,0,0,1-5.71-2.26,7.6,7.6,0,0,1-2.28-5.65,11.07,11.07,0,0,1,4-8.27q3.94-3.67,17.23-9.78v-4q0-4.55-.5-5.73a4.66,4.66,0,0,0-1.86-2.07,5.69,5.69,0,0,0-3.1-.88,8,8,0,0,0-4.6,1.25,2.21,2.21,0,0,0-1.11,1.8,3.74,3.74,0,0,0,1.2,2.24,5.49,5.49,0,0,1,1.63,3.57,4.72,4.72,0,0,1-1.57,3.58,5.71,5.71,0,0,1-4.1,1.49,6.52,6.52,0,0,1-4.53-1.64,5,5,0,0,1-1.83-3.82,8.94,8.94,0,0,1,2.45-5.91A15.41,15.41,0,0,1,486.21,96a27.94,27.94,0,0,1,9.11-1.5q5.71,0,9.05,2.42a11.41,11.41,0,0,1,4.32,5.27c.4,1.2.6,4,.6,8.29v15.6a16.48,16.48,0,0,0,.21,3.46,2.06,2.06,0,0,0,.65,1.05,1.46,1.46,0,0,0,1,.35c.74,0,1.5-.53,2.27-1.59l1.29,1a15.67,15.67,0,0,1-4.44,4.62,9.67,9.67,0,0,1-5.23,1.44,8.17,8.17,0,0,1-5.37-1.61A7.28,7.28,0,0,1,497.3,130Zm0-3.14V113.36a25.17,25.17,0,0,0-7.74,6.53,8,8,0,0,0-1.67,4.69,4.89,4.89,0,0,0,1.42,3.48,3.88,3.88,0,0,0,3,1.16Q494.47,129.22,497.3,126.81Z" transform="translate(-26.48 -30.77)"></path><path class="cls-1" d="M530.7,95.7v5.2A23.79,23.79,0,0,1,536.64,96a12.74,12.74,0,0,1,6.1-1.52,9.73,9.73,0,0,1,6.49,2.17,10.32,10.32,0,0,1,3.43,5.39q.69,2.44.69,9.41v15.64q0,4.65.84,5.78c.56.76,1.73,1.24,3.5,1.44v1.55H537.37v-1.55a4.25,4.25,0,0,0,3.26-1.89q.69-1.06.69-5.33V109.24a29,29,0,0,0-.39-6.23,3.79,3.79,0,0,0-1.31-2,3.27,3.27,0,0,0-2-.71q-3.69,0-6.88,5.28v21.53q0,4.52.84,5.72a4.29,4.29,0,0,0,3.12,1.5v1.55H514.33v-1.55a5,5,0,0,0,3.61-1.63q.73-.94.73-5.59V104.42q0-4.55-.84-5.67c-.55-.74-1.72-1.23-3.5-1.46V95.7Z" transform="translate(-26.48 -30.77)"></path><path class="cls-1" d="M591.18,125.52l1.34,1a20,20,0,0,1-7.07,7.92,16.88,16.88,0,0,1-9,2.6A15.56,15.56,0,0,1,563.6,131a22.66,22.66,0,0,1-4.82-14.56A24.41,24.41,0,0,1,563.17,102a16.82,16.82,0,0,1,14.56-7.52q6.24,0,9.91,3.13c2.45,2.1,3.67,4.43,3.67,7a5.23,5.23,0,0,1-1.48,3.91,5.31,5.31,0,0,1-3.89,1.46,5.63,5.63,0,0,1-4.19-1.68q-1.65-1.67-2-6a6.55,6.55,0,0,0-1.25-3.78,3,3,0,0,0-2.32-1.08,4.21,4.21,0,0,0-3.52,2.2q-2.24,3.3-2.23,10.14a32.8,32.8,0,0,0,1.8,10.85,16.66,16.66,0,0,0,4.94,7.71,8.77,8.77,0,0,0,5.59,1.85,8.55,8.55,0,0,0,4-1A18.11,18.11,0,0,0,591.18,125.52Z" transform="translate(-26.48 -30.77)"></path><path class="cls-1" d="M626.65,114.35h-22q.38,8,4.25,12.64a9,9,0,0,0,7.13,3.56,8.14,8.14,0,0,0,4.69-1.44,18.08,18.08,0,0,0,4.51-5.18l1.46.95q-3.25,6.66-7.22,9.43a15.5,15.5,0,0,1-9.15,2.77q-8.94,0-13.54-6.87-3.69-5.55-3.69-13.75,0-10.06,5.43-16t12.75-6a13.84,13.84,0,0,1,10.59,5Q626.3,104.51,626.65,114.35Zm-10.57-2.88q0-6.91-.75-9.5A7.81,7.81,0,0,0,613,98.06a3.61,3.61,0,0,0-2.41-.77,4.21,4.21,0,0,0-3.65,2.19q-2.53,3.83-2.54,10.49v1.5Z" transform="translate(-26.48 -30.77)"></path><rect class="cls-2" x="569.17" y="134.85" width="0.25" height="1.88"></rect><path class="cls-3" d="M203.13,30.77c3.23,2.66,4.2,6.42,4.84,10.27,2.42,14.68,3.13,29.54,4.58,44.32,1.88,19.09,3.56,38.21,5.29,57.31q2.53,28,5,56A108.1,108.1,0,0,0,225,213.83c.39-5.07.89-10.13,1.17-15.21.85-15.29,1.58-30.6,3.79-45.78.47-3.19,0-7.8,4.37-8.26s4.9,4,6.17,7.06a60.5,60.5,0,0,1,3.12,9.24c.9,3.69,3,4.84,6.67,4.8,15.18-.16,30.37-.07,45.55-.07H618c2.77,0,5.6-.39,8.24.91V209.3c-2.32.1-4.64.28-7,.28H259.47c-8.93,0-9.2-.2-12.08-8.87-3.27-9.84-6.54-19.68-10.83-29.57-.54,6.73-1.13,13.45-1.62,20.18-1.16,15.58-1.34,31.25-3.78,46.72a41.26,41.26,0,0,1-1.68,6.74c-.75,2.26-2,4.44-4.74,4.44s-3.53-2.25-4.3-4.28c-2.33-6.16-2.88-12.66-3.5-19.13q-3.19-33.73-6.24-67.48c-1.69-18.65-3.29-37.3-5-55.95-1.23-13.56-2.53-27.11-4.47-40.75-.51,4.27-1.1,8.52-1.53,12.79-3.5,35.27-6.93,70.53-10.51,105.79-.67,6.61-1.51,13.24-3.75,19.57-.74,2.08-1.73,4.25-4.31,4.3-2.79,0-3.37-2.46-4.06-4.44a56.32,56.32,0,0,1-3-14c-.36-4.54-2.25-6.2-7-6.18-44,.19-88,.13-132,.06-2.49,0-5.94,1.3-7.22-1.55-1.43-3.21-.75-7-.24-10.53.17-1.22,1.41-1.59,2.52-1.67,1.7-.11,3.4-.12,5.11-.12,44.31,0,88.63,0,132.94-.08,6.08,0,11.51.1,12.42,8.27,1.78-5.35,1.84-10.48,2.36-15.54,2.38-23.24,4.6-46.5,7.09-69.73,1.71-15.84,2.5-31.79,5.51-47.47.74-3.83,1.68-7.6,4.85-10.3Z" transform="translate(-26.48 -30.77)"></path><rect class="cls-2" x="0.45" y="134.73" width="36.97" height="14.03"></rect><rect class="cls-2" x="571.67" y="134.85" width="28.07" height="43.68"></rect><path class="cls-4" d="M307.18,194.27a9.35,9.35,0,0,0,1.67.63c2.94.41,5.25-.82,7.32-2.8a22.77,22.77,0,0,0,4.31-6.17c1.33-2.52,2.85-4.93,4.41-7.32a12.17,12.17,0,0,1,2.14-2c-1.15-.12-2.18-.27-3.21-.32a39.34,39.34,0,0,0-7.82.13,10.37,10.37,0,0,0-6.78,3.59c-1.39,1.66-2.44,3.54-2,5.82.34,1.93,1.71,3.49,4.08,3.08s3.09-2.11,4.05-3.77a13.18,13.18,0,0,0,.47-1.24,1.66,1.66,0,0,0-.44-2.06,1.74,1.74,0,0,0-2-.35,3.39,3.39,0,0,0-1.89,1.9c-.42.75-.13,1.14.68,1.27.3,0,.78.24.81.42.06.48.12,1.21-.16,1.45a2.47,2.47,0,0,1-1.8.7c-.84-.15-1.83-.21-2.11-1.52a5.27,5.27,0,0,1,2-5.47,20.87,20.87,0,0,1,2.67-1.45,2.33,2.33,0,0,1,1.3-.19c3.2.49,5.55,2.94,4,6.5a12,12,0,0,1-2.3,3.59,9,9,0,0,1-5.42,2.62c-2,.24-5.12-1.33-5.7-3.74-.34-1.4-1-2.68-.55-4.16.56-1.91,1-3.84,2.49-5.35a14.33,14.33,0,0,1,4.9-3.67,13.68,13.68,0,0,1,7.6-1.07c2.68.49,5.36,1,8.06,1.37a11.89,11.89,0,0,0,3.11-.3c.83-.1,1.21.34,1.35,1.07s-.39,1.09-.95,1.21a6.91,6.91,0,0,0-5,4.48,43.28,43.28,0,0,0-1.87,5.78,12.93,12.93,0,0,1-4.61,7.09,12.37,12.37,0,0,1-3.87,2.21,18.28,18.28,0,0,1-6,1.07,7.42,7.42,0,0,1-5-2,3.16,3.16,0,0,1-.38-3.19,2,2,0,0,1,2.48-.58C308.2,191.93,308.3,193,307.18,194.27Z" transform="translate(-26.48 -30.77)"></path><path class="cls-4" d="M417.53,194c1.4.18,1.74-.74,2.29-1.29s1.39-.74,1.85-.25.17,1.09-.31,1.47c-.88.73-1.8,1.42-2.71,2.11a1.58,1.58,0,0,1-1.72,0c-1.19-.49-1.89-1.18-1.66-2.56,0-.22-.15-.47-.31-.92-.32.44-.53.69-.7,1a6.57,6.57,0,0,1-3.6,2.79c-1.43.48-4.46-1.55-4.18-3.32.16-1-.13-2.13.15-3.1a11.29,11.29,0,0,1,3.81-5.76,14.65,14.65,0,0,1,7.55-3c.26,0,.55.1.82.06s.72-.13.85-.34a17.4,17.4,0,0,0,1.46-2.68c.37-.91-.51-1.17-1.06-1.57l-1.12-.81.06-.46a9.93,9.93,0,0,1,1.74-.46c.87-.08,1.75,0,2.61,0a11.19,11.19,0,0,0,1.45-.4c.45-.09.92-.13,1.39-.19a3.91,3.91,0,0,1,0,1.44q-1.19,3.09-2.52,6.09a1.09,1.09,0,0,0,.21,1.45c.24.25.19.79.28,1.2a6.61,6.61,0,0,0-1,.13c-.4.1-1,.17-1.12.44-1.26,2.48-2.45,5-3.67,7.49C418.16,192.93,417.89,193.37,417.53,194Zm.8-11c-1.06.33-1.81.5-2.52.8a8.67,8.67,0,0,0-3.9,3.7,12,12,0,0,0-2,5.47c0,.34.22.92.46,1a1.57,1.57,0,0,0,1.25-.21,6.1,6.1,0,0,0,1.34-1.48q2.55-4,5-8A6.09,6.09,0,0,0,418.33,183Z" transform="translate(-26.48 -30.77)"></path><path class="cls-4" d="M359,193.91l-1.43,3.17a3,3,0,0,1-.23.68c-.7,1-.9,1.71.6,2.12.27.08.4,1,.39,1.45,0,.16-.62.44-1,.46-1.62.12-3.25.17-4.87.22-.66,0-1.07-1-.7-1.84,1.49-3.1,3-6.21,4.48-9.31.87-1.79,1.74-3.6,2.68-5.36.37-.7.34-1.13-.44-1.43-.51-.19-1.15-.36-.92-1.12a1.36,1.36,0,0,1,1.47-1c1.54,0,3.09-.23,4.77-.36-.06.53-.13,1.26-.22,2.21.71-.55,1.23-1,1.81-1.4A4.12,4.12,0,0,1,370,182a2.87,2.87,0,0,1,1.44,2.29,10.66,10.66,0,0,1-1.83,7,11.35,11.35,0,0,1-6.66,5,3.13,3.13,0,0,1-3.52-1.76A7.16,7.16,0,0,0,359,193.91Zm2-1.22c.15.6.24,1.42.39,1.43a2.84,2.84,0,0,0,1.71-.33,5.72,5.72,0,0,0,1.6-1.72,26.87,26.87,0,0,0,2.12-4,20.65,20.65,0,0,0,1-3.9c.14-.78-.48-.89-1-.53a10.41,10.41,0,0,0-2.3,2,29.07,29.07,0,0,0-2.46,4.08A23.17,23.17,0,0,0,361,192.69Z" transform="translate(-26.48 -30.77)"></path><path class="cls-4" d="M551.84,183.67a4.79,4.79,0,0,1-1.52-.12,1.21,1.21,0,0,1-.67-.85c0-.27.53-.74.79-.71,1.46.15,2.19-.56,2.88-1.78a13.61,13.61,0,0,1,7-6,11.72,11.72,0,0,1,4.62-.76,2.92,2.92,0,0,1,2.81,1.68,1.45,1.45,0,0,1-.66,2,5,5,0,0,1-2.15.09c-.24,0-.6-.75-.51-1,.26-.87-.3-.8-.76-.75a5,5,0,0,0-3.3,1.14c-1.53,1.53-3.14,3-3.73,5.33a6.86,6.86,0,0,1,1.44,0c.3.06.81.42.78.55-.08.37-.33.88-.63,1a5.64,5.64,0,0,1-1.75.1c-.65,0-.95.24-1.15.9-.36,1.15-.91,2.23-1.35,3.34s-.84,2.43-1.36,3.59a30.84,30.84,0,0,1-2,3.88,24.33,24.33,0,0,1-2.38,3.08c-1.61,1.89-3.52,3.32-6.13,3.41-1,0-2.11,0-3.16,0s-2.46-1.59-2.63-2.62.41-1.75,1.6-2.24c.84-.34,1.31.3,1.87.71a1,1,0,0,1,.3,1.43c-.45.76-.16,1.06.68,1.06,2.4,0,4-1.41,5.37-3.15a15.9,15.9,0,0,0,2.67-5.21C549.69,189.09,550.79,186.48,551.84,183.67Z" transform="translate(-26.48 -30.77)"></path><path class="cls-4" d="M335.74,181.31c-.38,1-.69,1.88-1,2.75l.17.13c.65-.57,1.29-1.16,2-1.72,1-.85,2.07-1.41,3.52-.78a2.89,2.89,0,0,1,1.82,3.42,14.29,14.29,0,0,1-2.62,5.33,24.28,24.28,0,0,0-1.48,2.87c-.08.17-.09.56,0,.6a1,1,0,0,0,.76.09,3,3,0,0,0,.71-.74c.25-.28.45-.71.76-.82a5.13,5.13,0,0,1,1.42-.05c0,.46.12,1-.1,1.34a7.3,7.3,0,0,1-3.63,2.59,1.06,1.06,0,0,1-.61,0,3.51,3.51,0,0,1-2.45-4.21,11.35,11.35,0,0,1,2.4-4.74,26.66,26.66,0,0,0,1.92-3c.11-.18.07-.68,0-.74s-.75-.23-.91-.09a18.31,18.31,0,0,0-2.48,2.58,39.64,39.64,0,0,0-4.62,8.67,1.41,1.41,0,0,1-1.54.93,4.14,4.14,0,0,0-2.76.63,1.28,1.28,0,0,1-1-.06,2.49,2.49,0,0,1-.13-1.62c1.1-2.4,2.31-4.75,3.5-7.11.35-.69.77-1.36,1.18-2,.51-.83.43-1.28-.51-1.49s-.86-.77-.78-1.39.58-.77,1.16-.75,1.25,0,1.88,0c.85,0,1.73.16,2.46-.54C334.8,181.25,335.22,181.35,335.74,181.31Z" transform="translate(-26.48 -30.77)"></path><path class="cls-4" d="M485,193a22.42,22.42,0,0,1-2.28,2.29,4.61,4.61,0,0,1-2.25,1c-2.83.23-4.55-2.74-4-5.27a11.22,11.22,0,0,1,5.72-8c2.91-1.56,6.1-2.58,9.5-1.17,1,.41,2.06,1.86,1.83,2.78a3.07,3.07,0,0,1-.83,1.19c-.35.36-.93.56-1.16,1-.87,1.52-1.62,3.1-2.44,4.64-.42.79-.89,1.55-1.36,2.35,1.16.55,1.55-.26,2.07-.75a2.78,2.78,0,0,0,.4-.59c.32-.49.71-1.2,1.29-.52a1.92,1.92,0,0,1,.15,1.73,6,6,0,0,1-3.32,2.55,2.59,2.59,0,0,1-2.4-1.18C485.54,194.47,485.3,193.79,485,193Zm5.55-9.68c-1.45.11-2.94-.1-4.17.38a8.43,8.43,0,0,0-4.51,4.19,37,37,0,0,0-1.84,4.57,1.64,1.64,0,0,0,.4,1.45c.22.21.93-.08,1.39-.21a1,1,0,0,0,.45-.43c1.5-2.25,3.07-4.46,4.43-6.8.49-.86,1-1.3,1.89-1.18C489.83,185.48,490.43,184.94,490.53,183.34Z" transform="translate(-26.48 -30.77)"></path><path class="cls-4" d="M441.43,191.69c-.19-2.48,1.09-4.41,2.61-6.12a14.7,14.7,0,0,1,3.94-3.28c2.77-1.47,6.27-1.43,7.78,2.09a5.17,5.17,0,0,1,.14,3.21,11.66,11.66,0,0,1-4.9,6.77,9.28,9.28,0,0,1-5.11,1.82A4.16,4.16,0,0,1,441.43,191.69Zm4.9,2.62a11.69,11.69,0,0,0,2.09-1.31,14.94,14.94,0,0,0,4.07-8.09c.24-1.15-.56-1.77-1.69-1.36-2.21.81-3.35,2.71-4.32,4.65a31.39,31.39,0,0,0-1.46,4.29C444.66,193.6,445,194.07,446.33,194.31Z" transform="translate(-26.48 -30.77)"></path><path class="cls-4" d="M399.13,194.21c1.27.26,2-.72,2.9-1.22.41-.23.78-.54,1.18-.81s.79-.77,1.08-.12c.21.44.25,1.32,0,1.55-1.81,1.55-3.83,2.79-6.32,2.75a5.5,5.5,0,0,1-5.23-4.71A3.76,3.76,0,0,1,393,190a12.42,12.42,0,0,1,6.75-7.8,6.07,6.07,0,0,1,4.81-.53,2.75,2.75,0,0,1,1.37,4,6.5,6.5,0,0,1-4.45,3.07,9.79,9.79,0,0,0-3.46,1.62c-1.34.94-1.5,2.61-.46,3.39A4.8,4.8,0,0,0,399.13,194.21Zm3.94-10.71c-1.27-.15-4.43,2.74-4.39,4,.86-.4,1.71-.82,2.57-1.21A2.62,2.62,0,0,0,403.07,183.5Z" transform="translate(-26.48 -30.77)"></path><path class="cls-4" d="M514.71,194.29a5.55,5.55,0,0,0,3.4-1.68,2.42,2.42,0,0,1,1.35-.56c.24,0,.68.41.74.7a1.14,1.14,0,0,1-.38,1,37.37,37.37,0,0,1-3.76,2.15,5.94,5.94,0,0,1-4.72-.14,4.93,4.93,0,0,1-2.78-3.89c.07-4.06,2.29-6.75,5.51-8.9a8.89,8.89,0,0,1,4-1.51,4.28,4.28,0,0,1,3.13,1,2.88,2.88,0,0,1-.14,4,7.16,7.16,0,0,1-3.87,2.29c-1.47.35-3.09.71-4.06,2.16a2.35,2.35,0,0,0-.32,2.64C513.15,194,514.07,194,514.71,194.29Zm-.4-7.12.25.22c1.53-.63,3.15-1.15,4-2.76a4.48,4.48,0,0,0,.26-1c-.44,0-1-.05-1.29.19a32.49,32.49,0,0,0-2.45,2.39C514.82,186.47,514.58,186.84,514.31,187.17Z" transform="translate(-26.48 -30.77)"></path><path class="cls-4" d="M563.05,194.06a4.45,4.45,0,0,0,3.59-1.51c.91-.8,1.69-.75,1.89.21a1,1,0,0,1-.23.82,9.67,9.67,0,0,1-6.39,2.79,5.14,5.14,0,0,1-4.65-3.88,6.85,6.85,0,0,1,2-6.59c1.24-1.29,2.35-2.76,4.08-3.47s3.34-1.46,5.25-.71a2.72,2.72,0,0,1,1.28,4,6.93,6.93,0,0,1-4.34,3,12.57,12.57,0,0,0-3.48,1.6c-.86.49-1.13,2.2-.76,3.1S562.56,193.93,563.05,194.06Zm-.69-6.82c.09.11.17.22.26.32.84-.4,1.67-.82,2.52-1.18a3,3,0,0,0,1.91-1.8,4.94,4.94,0,0,0,.09-1c-.39,0-.91-.08-1.13.13C564.75,184.82,563.57,186.05,562.36,187.24Z" transform="translate(-26.48 -30.77)"></path><path class="cls-4" d="M538,175.08c1-.27,1.91-.58,2.89-.79a4.31,4.31,0,0,1,1.27.14,8.17,8.17,0,0,1-.2,1.22c-.11.39-.38.72-.5,1.1-.36,1-.57,2.15-1,3.15-.87,1.89-1.85,3.73-2.85,5.56-1.23,2.28-2.54,4.51-3.8,6.78a2.08,2.08,0,0,0-.22.88,3.72,3.72,0,0,0,.16.86c.29-.1.66-.11.87-.3.4-.36.66-.9,1.09-1.21s1-.44,1.2-.27.59,1,.44,1.21a5.17,5.17,0,0,1-1.7,1.91c-1.27.68-2.67,1.76-4.12.24-.39-.4-1-.83-1-1.3-.19-1.42-.45-2.88.31-4.25,1.26-2.24,2.56-4.45,3.74-6.73.89-1.74,1.66-3.54,2.4-5.34.32-.79-.29-1.25-1-1.39s-1.16-.3-.95-.91c.12-.36.77-.65,1.23-.77a7.15,7.15,0,0,1,1.67,0A2.17,2.17,0,0,0,538,175.08Z" transform="translate(-26.48 -30.77)"></path><path class="cls-4" d="M494.59,191.59c-.52-2.29,1-3.89,2.12-5.61.72-1.09.75-1.29-.08-2.3a1.41,1.41,0,0,1-.32-1.17,1.45,1.45,0,0,1,1.08-.54c1.5-.12,3.05.24,4.46-.61a.92.92,0,0,1,.81.17c.12.1.11.53,0,.72-1,1.85-2,3.67-3,5.53-.83,1.61-1.62,3.26-2.37,4.92-.14.31-.18,1,0,1.06a2.19,2.19,0,0,0,1.48.45,7.51,7.51,0,0,0,4.25-2.92,15.2,15.2,0,0,0,2.91-5.43c.21-.73.07-1.27-.84-1.43-.41-.07-1.11-.42-1.1-.61a2.65,2.65,0,0,1,.6-1.73,2.36,2.36,0,0,1,2.77-.19c.87.46.89,1.19,1,2,.2,2.48-1,4.5-2.25,6.44a38.93,38.93,0,0,1-2.63,3.28,8.13,8.13,0,0,1-5.07,2.63c-.85.15-2-.57-2.79-1.14C494.42,194.29,494.39,193,494.59,191.59Z" transform="translate(-26.48 -30.77)"></path><path class="cls-4" d="M389.18,184.47a12.84,12.84,0,0,1,1.83-1.92,5.46,5.46,0,0,1,2.37-1,1.8,1.8,0,0,1,1.52.73,1.62,1.62,0,0,1-.43,2c-1.22,1.12-1.6,1.19-2.9.05-.57.75-1.2,1.46-1.7,2.24-.85,1.34-1.68,2.7-2.43,4.1s-1.28,2.66-1.85,4a1.46,1.46,0,0,1-1.64,1.07,4.52,4.52,0,0,0-3,.49c-.24.16-.7,0-1.06,0a3,3,0,0,1,.11-1c.72-1.57,1.47-3.12,2.23-4.67s1.57-3.21,2.41-4.79c.46-.87.37-1.31-.63-1.68a1.15,1.15,0,0,1-.77-1.34c.06-.69.56-.76,1.1-.76h2.51c.67,0,1.32.06,1.85-.59.36-.45,1-.11,1,.51a3.85,3.85,0,0,1-.4,1.23c-.15.42-.32.83-.48,1.24Z" transform="translate(-26.48 -30.77)"></path><path class="cls-4" d="M345.7,193.89c1.06,0,2.05.56,2.9-.31a2.52,2.52,0,0,0,.41-3.13c-.64-.88-1.28-1.77-2-2.61a3.66,3.66,0,0,1,.12-4.59,6.76,6.76,0,0,1,4.41-2.32,4.58,4.58,0,0,1,3.77,1.5,2.18,2.18,0,0,1,.19,1.81,2,2,0,0,1-2.28,1c-.75-.19-1.25-.55-1.12-1.44a2.56,2.56,0,0,0-.13-.74,13,13,0,0,0-1.3.37c-.37.16-1,.38-1,.64a2.34,2.34,0,0,0,.34,1.5c.87,1.26,2,2.37,2.74,3.68a3.37,3.37,0,0,1,0,3.4,5.16,5.16,0,0,1-2.07,2.6c-1.47.77-3.07,1.5-4.7,1.07a3.85,3.85,0,0,1-3.08-2.54,2.19,2.19,0,0,1,1.4-2.85,2,2,0,0,1,2.53,1.15c.1.32-.23.8-.44,1.16A3.44,3.44,0,0,1,345.7,193.89Z" transform="translate(-26.48 -30.77)"></path><path class="cls-4" d="M467.05,193.71a2.85,2.85,0,0,0,2.83,0,2,2,0,0,0,.64-2.68,26.17,26.17,0,0,0-2.33-3.52,2.67,2.67,0,0,1-.39-3,5.91,5.91,0,0,1,7-3.4c1.76.52,2.34,1.15,2.16,2.49a1.81,1.81,0,0,1-.87,1.3,6,6,0,0,1-2.24,0c-.09,0-.15-.48-.19-.74s-.11-.77-.15-1.14l-1.72.38a1.13,1.13,0,0,0-.6,1.89c.75.89,1.55,1.74,2.29,2.65,1.33,1.62,1.28,3.48.26,5.38-1.27,2.35-3.42,2.82-5.7,3a4.62,4.62,0,0,1-3.95-2.74,2.34,2.34,0,0,1,1.58-2.74,2.2,2.2,0,0,1,2.45,1,1.64,1.64,0,0,1-.19,1.13C467.76,193.25,467.39,193.43,467.05,193.71Z" transform="translate(-26.48 -30.77)"></path><path class="cls-4" d="M435.86,184.07c-.34-.11-.65-.12-.76-.27-.24-.33-.58-.77-.52-1.1a1.17,1.17,0,0,1,.91-.71,2.35,2.35,0,0,0,2.7-1.82c.21-.57,1-1,1.62-1.33a8.48,8.48,0,0,1,1.93-.67c.28-.08.82-.13.88,0a1.29,1.29,0,0,1,.05,1c-.41.82-.92,1.59-1.47,2.5a2.6,2.6,0,0,0,.75.27c.65,0,1.46,0,1.29.87-.1.48-1,1.26-1.3,1.17-2.25-.62-2.52,1.32-3.22,2.48-1.23,2.05-2.27,4.21-3.33,6.35a4.75,4.75,0,0,0-.22,1.38l.44.24a19.63,19.63,0,0,0,1.63-1.66,1.19,1.19,0,0,1,1.7-.4c.68.43.33.9,0,1.47a5.44,5.44,0,0,1-3.59,2.38,2.72,2.72,0,0,1-2.29-.94c-.77-1.16-1.56-2.49-.63-4.08.52-.88.71-2,1.17-2.89s1.07-1.8,1.59-2.71C435.4,185.15,435.59,184.68,435.86,184.07Z" transform="translate(-26.48 -30.77)"></path><path class="cls-4" d="M380.94,181.56a3.07,3.07,0,0,1,0,1.29,21,21,0,0,1-1.26,2.39c-.4.74-.76,1.5-1.16,2.23-.76,1.39-1.57,2.75-2.29,4.16a20.86,20.86,0,0,0-.81,2.26,2.39,2.39,0,0,1,.22.23,2.6,2.6,0,0,0,.92-.36c.43-.39.72-.93,1.17-1.3a5.32,5.32,0,0,1,1.27-.61c.11.56.51,1.33.28,1.64a15.78,15.78,0,0,1-2.25,2.14,1.74,1.74,0,0,0-.18.11c-1.3.93-2.4.22-3.49-.44-.55-.33-1-2.09-.95-2.92.29-2.76,1.94-4.89,3.3-7.15.36-.58.44-.92-.36-1.23a1.64,1.64,0,0,1-.79-1.18c0-.25.54-.74.91-.83a12.87,12.87,0,0,1,1.87-.05C378.45,181.85,379.55,181.71,380.94,181.56Z" transform="translate(-26.48 -30.77)"></path><path class="cls-4" d="M544.32,182.18c1-.27,2-.56,3-.78a1.17,1.17,0,0,1,.83.18c.08,0,0,.48-.11.7-1,2.16-2.07,4.33-3.17,6.47-.69,1.35-1.52,2.63-2.22,4a4,4,0,0,0-.2,1.26,7.24,7.24,0,0,0,1.23-.46c.65-.38.83-1.42,1.82-1.33.3,0,.75,0,.85.2a1.14,1.14,0,0,1,0,1,6.19,6.19,0,0,1-3.89,2.82c-.71.14-2.22-.9-2.61-1.54-1.22-2-.27-3.82.55-5.59.58-1.26,1.33-2.43,2-3.63a1.27,1.27,0,0,0-.31-1.66,1.69,1.69,0,0,1-.42-1.32c.07-.26.75-.43,1.19-.51a6.75,6.75,0,0,1,1.35,0Z" transform="translate(-26.48 -30.77)"></path><path class="cls-4" d="M378.48,178.58a2.92,2.92,0,0,1,3.2-2.69,1.49,1.49,0,0,1,1,1.73c-.45,1.07-.7,2.33-2.27,2.55C379.11,180.36,378.47,180,378.48,178.58Z" transform="translate(-26.48 -30.77)"></path><path class="cls-4" d="M548.49,175.88a3.31,3.31,0,0,1,.91.84c.46.84-.09,2.21-1.14,3.06a1.79,1.79,0,0,1-2.44.06,1.69,1.69,0,0,1-.63-1.06C545.14,177.53,546.84,175.88,548.49,175.88Z" transform="translate(-26.48 -30.77)"></path></svg>